REM DIRINDEX 1\2\3,1\2\4,1\2\5,1\2\6
REM DIRNAME cjc157,folder01,folder02,folder03,folder04,folder05
TITLE ""
FILE "168 168.mp3" MP3
  TRACK 01 AUDIO
    TITLE "0:"
    INDEX 01 00:00:00
  TRACK 02 AUDIO
    TITLE "3:cjc157_6125"
    INDEX 01 00:00:09
  TRACK 03 AUDIO
    TITLE "0:"
    INDEX 01 00:01:22
  TRACK 04 AUDIO
    TITLE "4:cjc157_6126"
    INDEX 01 00:01:68
  TRACK 05 AUDIO
    TITLE "0:"
    INDEX 01 00:03:08
  TRACK 06 AUDIO
    TITLE "5:cjc157_6127"
    INDEX 01 00:03:53
  TRACK 07 AUDIO
    TITLE "0:"
    INDEX 01 00:07:25
  TRACK 08 AUDIO
    TITLE "3:cjc157_6128"
    INDEX 01 00:07:68
  TRACK 09 AUDIO
    TITLE "0:"
    INDEX 01 00:09:51
  TRACK 10 AUDIO
    TITLE "4:cjc157_6129"
    INDEX 01 00:10:21
  TRACK 11 AUDIO
    TITLE "0:"
    INDEX 01 00:11:70
  TRACK 12 AUDIO
    TITLE "5:cjc157_6130"
    INDEX 01 00:12:38
  TRACK 13 AUDIO
    TITLE "0:"
    INDEX 01 00:16:42
  TRACK 14 AUDIO
    TITLE "3:cjc157_6131"
    INDEX 01 00:17:14
  TRACK 15 AUDIO
    TITLE "0:"
    INDEX 01 00:18:37
  TRACK 16 AUDIO
    TITLE "4:cjc157_6132"
    INDEX 01 00:19:07
  TRACK 17 AUDIO
    TITLE "0:"
    INDEX 01 00:20:45
  TRACK 18 AUDIO
    TITLE "5:cjc157_6133"
    INDEX 01 00:21:15
  TRACK 19 AUDIO
    TITLE "0:"
    INDEX 01 00:25:31
  TRACK 20 AUDIO
    TITLE "3:cjc157_6134"
    INDEX 01 00:25:72
  TRACK 21 AUDIO
    TITLE "0:"
    INDEX 01 00:27:26
  TRACK 22 AUDIO
    TITLE "4:cjc157_6135"
    INDEX 01 00:28:00
  TRACK 23 AUDIO
    TITLE "0:"
    INDEX 01 00:29:25
  TRACK 24 AUDIO
    TITLE "5:cjc157_6136"
    INDEX 01 00:30:01
  TRACK 25 AUDIO
    TITLE "0:"
    INDEX 01 00:33:46
  TRACK 26 AUDIO
    TITLE "3:cjc157_6137"
    INDEX 01 00:34:16
  TRACK 27 AUDIO
    TITLE "0:"
    INDEX 01 00:35:63
  TRACK 28 AUDIO
    TITLE "4:cjc157_6138"
    INDEX 01 00:36:35
  TRACK 29 AUDIO
    TITLE "0:"
    INDEX 01 00:39:64
  TRACK 30 AUDIO
    TITLE "5:cjc157_6139"
    INDEX 01 00:40:32
  TRACK 31 AUDIO
    TITLE "0:"
    INDEX 01 00:42:72
  TRACK 32 AUDIO
    TITLE "5:cjc157_6140"
    INDEX 01 00:43:40
  TRACK 33 AUDIO
    TITLE "0:"
    INDEX 01 00:46:70
  TRACK 34 AUDIO
    TITLE "3:cjc157_6141"
    INDEX 01 00:47:40
  TRACK 35 AUDIO
    TITLE "0:"
    INDEX 01 00:49:27
  TRACK 36 AUDIO
    TITLE "4:cjc157_6142"
    INDEX 01 00:50:01
  TRACK 37 AUDIO
    TITLE "0:"
    INDEX 01 00:51:18
  TRACK 38 AUDIO
    TITLE "5:cjc157_6143"
    INDEX 01 00:51:69
  TRACK 39 AUDIO
    TITLE "0:"
    INDEX 01 00:54:01
  TRACK 40 AUDIO
    TITLE "3:cjc157_6144"
    INDEX 01 00:54:48
  TRACK 41 AUDIO
    TITLE "0:"
    INDEX 01 00:55:71
  TRACK 42 AUDIO
    TITLE "4:cjc157_6145"
    INDEX 01 00:56:41
  TRACK 43 AUDIO
    TITLE "0:"
    INDEX 01 00:58:28
  TRACK 44 AUDIO
    TITLE "5:cjc157_6146"
    INDEX 01 00:59:14
  TRACK 45 AUDIO
    TITLE "0:"
    INDEX 01 01:02:59
  TRACK 46 AUDIO
    TITLE "3:cjc157_6147"
    INDEX 01 01:03:26
  TRACK 47 AUDIO
    TITLE "0:"
    INDEX 01 01:04:66
  TRACK 48 AUDIO
    TITLE "4:cjc157_6148"
    INDEX 01 01:05:40
  TRACK 49 AUDIO
    TITLE "0:"
    INDEX 01 01:06:69
  TRACK 50 AUDIO
    TITLE "5:cjc157_6149"
    INDEX 01 01:07:41
  TRACK 51 AUDIO
    TITLE "0:"
    INDEX 01 01:11:58
  TRACK 52 AUDIO
    TITLE "5:cjc157_6150"
    INDEX 01 01:12:28
  TRACK 53 AUDIO
    TITLE "0:"
    INDEX 01 01:15:72
  TRACK 54 AUDIO
    TITLE "3:cjc157_6151"
    INDEX 01 01:16:38
  TRACK 55 AUDIO
    TITLE "0:"
    INDEX 01 01:18:27
  TRACK 56 AUDIO
    TITLE "4:cjc157_6152"
    INDEX 01 01:19:01
  TRACK 57 AUDIO
    TITLE "0:"
    INDEX 01 01:23:52
  TRACK 58 AUDIO
    TITLE "5:cjc157_6153"
    INDEX 01 01:24:30
  TRACK 59 AUDIO
    TITLE "0:"
    INDEX 01 01:28:10
  TRACK 60 AUDIO
    TITLE "3:cjc157_6154"
    INDEX 01 01:28:59
  TRACK 61 AUDIO
    TITLE "0:"
    INDEX 01 01:30:28
  TRACK 62 AUDIO
    TITLE "4:cjc157_6155"
    INDEX 01 01:31:00
  TRACK 63 AUDIO
    TITLE "0:"
    INDEX 01 01:32:59
  TRACK 64 AUDIO
    TITLE "5:cjc157_6156"
    INDEX 01 01:33:29
  TRACK 65 AUDIO
    TITLE "0:"
    INDEX 01 01:36:43
  TRACK 66 AUDIO
    TITLE "5:cjc157_6157"
    INDEX 01 01:37:11
  TRACK 67 AUDIO
    TITLE "0:"
    INDEX 01 01:41:09
